<svg xmlns="http://www.w3.org/2000/svg" viewBox="190 80 180 180" width="180" height="180">
  <circle cx="215.5" cy="217" r="190" fill="#f6efdc"/>
  <path fill="#f0c032" fill-rule="evenodd" d="M198 15C206.0 14.7 237.3 14.7 246 15C254.7 15.3 247.8 16.7 250 17C252.2 17.3 252.7 15.7 259 17C265.3 18.3 277.0 20.7 288 25C299.0 29.3 314.7 36.8 325 43C335.3 49.2 342.0 54.8 350 62C358.0 69.2 368.0 80.5 373 86C378.0 91.5 378.7 92.7 380 95C381.3 97.3 379.2 97.2 381 100C382.8 102.8 387.5 106.3 391 112C394.5 117.7 399.7 128.0 402 134C404.3 140.0 404.2 145.5 405 148C405.8 150.5 406.8 148.5 407 149C407.2 149.5 405.8 150.5 406 151C406.2 151.5 407.2 150.3 408 152C408.8 153.7 409.5 153.5 411 161C412.5 168.5 416.0 185.3 417 197C418.0 208.7 417.7 220.8 417 231C416.3 241.2 415.3 248.0 413 258C410.7 268.0 407.2 280.5 403 291C398.8 301.5 393.5 311.8 388 321C382.5 330.2 377.5 337.5 370 346C362.5 354.5 348.0 368.0 343 372C338.0 376.0 336.8 373.7 340 370C343.2 366.3 358.2 354.0 362 350C365.8 346.0 362.3 346.8 363 346C363.7 345.2 365.3 345.8 366 345C366.7 344.2 365.5 342.8 367 341C368.5 339.2 373.7 335.8 375 334C376.3 332.2 373.8 332.0 375 330C376.2 328.0 380.5 324.5 382 322C383.5 319.5 383.0 316.8 384 315C385.0 313.2 386.5 313.3 388 311C389.5 308.7 392.2 303.3 393 301C393.8 298.7 392.3 298.5 393 297C393.7 295.5 394.8 297.8 397 292C399.2 286.2 403.7 271.8 406 262C408.3 252.2 410.2 243.2 411 233C411.8 222.8 411.3 208.5 411 201C410.7 193.5 409.7 190.5 409 188C408.3 185.5 407.2 187.0 407 186C406.8 185.0 408.2 183.0 408 182C407.8 181.0 406.2 181.5 406 180C405.8 178.5 407.2 174.3 407 173C406.8 171.7 405.2 172.5 405 172C404.8 171.5 406.3 171.3 406 170C405.7 168.7 403.7 166.5 403 164C402.3 161.5 403.2 159.2 402 155C400.8 150.8 397.5 142.2 396 139C394.5 135.8 393.3 136.8 393 136C392.7 135.2 396.3 139.0 394 134C391.7 129.0 382.2 111.2 379 106C375.8 100.8 376.0 104.5 375 103C374.0 101.5 373.8 98.2 373 97C372.2 95.8 371.7 98.2 370 96C368.3 93.8 365.3 86.8 363 84C360.7 81.2 359.0 82.0 356 79C353.0 76.0 347.7 68.5 345 66C342.3 63.5 341.3 65.2 340 64C338.7 62.8 339.8 61.2 337 59C334.2 56.8 325.8 53.0 323 51C320.2 49.0 321.3 47.8 320 47C318.7 46.2 316.2 46.8 315 46C313.8 45.2 314.2 42.7 313 42C311.8 41.3 309.2 42.5 308 42C306.8 41.5 309.7 40.8 306 39C302.3 37.2 289.8 32.8 286 31C282.2 29.2 285.2 28.7 283 28C280.8 27.3 276.5 28.0 273 27C269.5 26.0 266.7 23.2 262 22C257.3 20.8 248.2 20.7 245 20C241.8 19.3 245.5 18.2 243 18C240.5 17.8 232.5 19.2 230 19C227.5 18.8 232.7 17.3 228 17C223.3 16.7 207.2 16.7 202 17C196.8 17.3 198.2 19.0 197 19C195.8 19.0 194.8 17.3 195 17C195.2 16.7 197.5 17.3 198 17C198.5 16.7 190.0 15.3 198 15ZM283 85C284.5 84.7 286.5 83.5 291 85C295.5 86.5 304.5 90.0 310 94C315.5 98.0 320.8 104.8 324 109C327.2 113.2 327.8 115.5 329 119C330.2 122.5 330.0 127.8 331 130C332.0 132.2 334.2 131.2 335 132C335.8 132.8 336.7 134.7 336 135C335.3 135.3 332.7 135.0 331 134C329.3 133.0 328.2 133.3 326 129C323.8 124.7 320.2 112.0 318 108C315.8 104.0 314.2 106.2 313 105C311.8 103.8 313.7 103.0 311 101C308.3 99.0 299.8 95.0 297 93C294.2 91.0 296.5 90.0 294 89C291.5 88.0 283.8 87.7 282 87C280.2 86.3 281.5 85.3 283 85ZM47 152C49.0 147.0 48.7 151.5 49 152C49.3 152.5 49.3 154.2 49 155C48.7 155.8 47.3 155.5 47 157C46.7 158.5 47.8 160.5 47 164C46.2 167.5 43.3 168.0 42 178C40.7 188.0 38.7 210.7 39 224C39.3 237.3 42.2 249.0 44 258C45.8 267.0 48.5 274.0 50 278C51.5 282.0 52.5 280.3 53 282C53.5 283.7 53.8 287.3 53 288C52.2 288.7 49.7 288.5 48 286C46.3 283.5 43.7 275.5 43 273C42.3 270.5 44.3 272.2 44 271C43.7 269.8 41.7 268.5 41 266C40.3 263.5 40.7 258.5 40 256C39.3 253.5 37.3 252.5 37 251C36.7 249.5 38.3 250.2 38 247C37.7 243.8 35.2 242.8 35 232C34.8 221.2 35.0 195.3 37 182C39.0 168.7 45.0 157.0 47 152ZM328 157C328.8 150.3 331.3 150.2 332 157C332.7 163.8 332.8 191.3 332 198C331.2 204.7 327.7 203.8 327 197C326.3 190.2 327.2 163.7 328 157ZM267 185C268.0 184.8 270.2 185.8 271 187C271.8 188.2 272.0 188.5 272 192C272.0 195.5 271.8 203.0 271 208C270.2 213.0 268.3 218.2 267 222C265.7 225.8 265.5 227.0 263 231C260.5 235.0 256.0 242.2 252 246C248.0 249.8 239.3 254.3 239 254C238.7 253.7 246.5 248.5 250 244C253.5 239.5 257.5 232.3 260 227C262.5 221.7 264.2 218.5 265 212C265.8 205.5 264.7 192.5 265 188C265.3 183.5 266.0 185.2 267 185ZM70 322C70.3 320.8 72.8 321.5 74 322C75.2 322.5 73.7 320.7 77 325C80.3 329.3 91.8 344.2 94 348C96.2 351.8 91.3 348.8 90 348C88.7 347.2 87.3 344.0 86 343C84.7 342.0 83.3 343.5 82 342C80.7 340.5 79.7 336.2 78 334C76.3 331.8 73.3 331.0 72 329C70.7 327.0 69.7 323.2 70 322Z"></path>
  <path fill="#ec4882" fill-rule="evenodd" d="M253 36C256.0 36.3 266.0 38.7 273 41C280.0 43.3 285.5 44.7 295 50C304.5 55.3 321.7 66.8 330 73C338.3 79.2 339.8 81.5 345 87C350.2 92.5 355.7 98.5 361 106C366.3 113.5 372.7 123.7 377 132C381.3 140.3 384.3 148.3 387 156C389.7 163.7 391.5 170.5 393 178C394.5 185.5 395.5 191.7 396 201C396.5 210.3 396.5 225.2 396 234C395.5 242.8 394.8 246.2 393 254C391.2 261.8 388.0 272.7 385 281C382.0 289.3 379.3 296.0 375 304C370.7 312.0 363.7 322.7 359 329C354.3 335.3 349.2 340.0 347 342C344.8 344.0 345.3 341.8 346 341C346.7 340.2 350.0 338.3 351 337C352.0 335.7 350.2 335.7 352 333C353.8 330.3 358.2 327.0 362 321C365.8 315.0 370.7 307.7 375 297C379.3 286.3 385.3 266.7 388 257C390.7 247.3 390.3 246.3 391 239C391.7 231.7 392.2 221.2 392 213C391.8 204.8 391.2 197.8 390 190C388.8 182.2 387.2 173.8 385 166C382.8 158.2 380.5 151.0 377 143C373.5 135.0 369.2 126.2 364 118C358.8 109.8 351.3 100.3 346 94C340.7 87.7 337.7 85.0 332 80C326.3 75.0 318.3 68.5 312 64C305.7 59.5 300.3 56.3 294 53C287.7 49.7 280.5 46.3 274 44C267.5 41.7 258.5 40.3 255 39C251.5 37.7 250.0 35.7 253 36ZM51 105C53.8 101.0 52.7 104.7 53 105C53.3 105.3 53.7 106.0 53 107C52.3 108.0 51.7 106.5 49 111C46.3 115.5 40.5 126.0 37 134C33.5 142.0 30.3 151.2 28 159C25.7 166.8 24.3 172.8 23 181C21.7 189.2 20.3 198.5 20 208C19.7 217.5 20.2 229.0 21 238C21.8 247.0 23.0 253.5 25 262C27.0 270.5 30.5 281.8 33 289C35.5 296.2 36.2 297.8 40 305C43.8 312.2 50.8 324.3 56 332C61.2 339.7 64.7 344.2 71 351C77.3 357.8 87.2 367.2 94 373C100.8 378.8 104.7 381.5 112 386C119.3 390.5 130.0 396.3 138 400C146.0 403.7 150.7 405.5 160 408C169.3 410.5 184.5 413.7 194 415C203.5 416.3 213.2 415.5 217 416C220.8 416.5 221.7 417.8 217 418C212.3 418.2 197.5 417.8 189 417C180.5 416.2 174.5 415.2 166 413C157.5 410.8 146.5 407.3 138 404C129.5 400.7 122.8 397.5 115 393C107.2 388.5 99.8 384.3 91 377C82.2 369.7 70.7 359.3 62 349C53.3 338.7 45.8 328.2 39 315C32.2 301.8 24.8 282.2 21 270C17.2 257.8 17.0 251.5 16 242C15.0 232.5 14.8 222.0 15 213C15.2 204.0 15.8 196.0 17 188C18.2 180.0 18.8 174.8 22 165C25.2 155.2 31.2 139.0 36 129C40.8 119.0 48.2 109.0 51 105ZM200 120C201.7 118.3 201.7 121.5 201 123C200.3 124.5 198.2 124.8 196 129C193.8 133.2 189.8 144.8 188 148C186.2 151.2 184.5 150.5 185 148C185.5 145.5 188.5 137.7 191 133C193.5 128.3 198.3 121.7 200 120ZM230 125C234.5 125.0 248.2 125.5 256 127C263.8 128.5 273.2 132.3 277 134C280.8 135.7 279.5 136.5 279 137C278.5 137.5 278.5 138.3 274 137C269.5 135.7 259.5 130.7 252 129C244.5 127.3 232.7 127.7 229 127C225.3 126.3 225.5 125.0 230 125ZM110 363C145.3 362.7 285.8 362.5 321 363C356.2 363.5 324.5 363.2 321 366C317.5 368.8 309.0 375.3 300 380C291.0 384.7 277.0 390.7 267 394C257.0 397.3 251.2 398.8 240 400C228.8 401.2 212.2 401.8 200 401C187.8 400.2 176.7 397.5 167 395C157.3 392.5 151.0 390.3 142 386C133.0 381.7 118.5 372.5 113 369C107.5 365.5 109.5 366.0 109 365C108.5 364.0 74.7 363.3 110 363Z"></path>
  <path fill="#374fc4" fill-rule="evenodd" d="M257 182C263.5 178.2 260.2 182.7 261 184C261.8 185.3 262.5 183.7 262 190C261.5 196.3 260.2 213.8 258 222C255.8 230.2 253.5 233.3 249 239C244.5 244.7 238.0 251.5 231 256C224.0 260.5 222.3 264.3 207 266C191.7 267.7 153.5 263.7 139 266C124.5 268.3 123.8 276.8 120 280C116.2 283.2 118.8 282.8 116 285C113.2 287.2 106.7 290.2 103 293C99.3 295.8 97.0 299.7 94 302C91.0 304.3 88.0 304.7 85 307C82.0 309.3 78.0 314.2 76 316C74.0 317.8 74.2 318.0 73 318C71.8 318.0 71.8 320.5 69 316C66.2 311.5 57.8 295.8 56 291C54.2 286.2 50.8 291.3 58 287C65.2 282.7 87.5 270.0 99 265C110.5 260.0 114.7 261.8 127 257C139.3 252.2 157.2 244.3 173 236C188.8 227.7 208.0 216.0 222 207C236.0 198.0 250.5 185.8 257 182ZM271 182C278.8 184.3 310.5 195.8 319 199C327.5 202.2 321.5 200.2 322 201C322.5 201.8 325.0 204.5 322 204C319.0 203.5 307.3 199.5 304 198C300.7 196.5 306.3 196.7 302 195C297.7 193.3 283.0 189.7 278 188C273.0 186.3 273.2 186.0 272 185C270.8 184.0 263.2 179.7 271 182ZM184 318C184.8 317.7 186.7 317.3 188 318C189.3 318.7 188.3 317.3 192 322C195.7 326.7 207.5 342.0 210 346C212.5 350.0 208.2 347.0 207 346C205.8 345.0 204.2 341.2 203 340C201.8 338.8 200.5 339.5 200 339C199.5 338.5 202.8 340.2 200 337C197.2 333.8 185.7 323.2 183 320C180.3 316.8 183.2 318.3 184 318ZM225 322C226.0 321.3 227.0 318.0 231 322C235.0 326.0 246.8 342.2 249 346C251.2 349.8 248.0 348.3 244 345C240.0 341.7 228.2 329.8 225 326C221.8 322.2 224.0 322.7 225 322Z"></path>
  <path fill="#9ca7ad" fill-rule="evenodd" d="M184 148C184.7 147.3 186.3 147.5 187 148C187.7 148.5 176.5 146.3 188 151C199.5 155.7 243.8 171.3 256 176C268.2 180.7 260.2 177.8 261 179C261.8 180.2 262.0 182.3 261 183C260.0 183.7 261.5 179.0 255 183C248.5 187.0 234.2 199.0 222 207C209.8 215.0 196.2 223.3 182 231C167.8 238.7 150.8 247.3 137 253C123.2 258.7 106.0 262.5 99 265C92.0 267.5 96.2 267.5 95 268C93.8 268.5 92.7 268.3 92 268C91.3 267.7 94.5 266.3 91 266C87.5 265.7 74.3 266.3 71 266C67.7 265.7 62.8 272.3 71 264C79.2 255.7 111.8 224.3 120 216C128.2 207.7 119.7 214.3 120 214C120.3 213.7 121.7 214.3 122 214C122.3 213.7 111.8 222.3 122 212C132.2 201.7 172.7 162.7 183 152C193.3 141.3 183.3 148.7 184 148Z"></path>
  <path fill="#e4bd84" fill-rule="evenodd" d="M193 15C198.0 14.3 197.7 15.7 198 16C198.3 16.3 195.2 16.5 195 17C194.8 17.5 200.8 18.2 197 19C193.2 19.8 181.3 19.8 172 22C162.7 24.2 145.8 30.8 141 32C136.2 33.2 138.5 31.0 143 29C147.5 27.0 159.7 22.3 168 20C176.3 17.7 188.0 15.7 193 15ZM95 78C99.3 73.8 99.0 76.5 97 79C95.0 81.5 87.3 88.0 83 93C78.7 98.0 75.2 102.3 71 109C66.8 115.7 60.7 129.0 58 133C55.3 137.0 56.0 132.3 55 133C54.0 133.7 49.3 141.8 52 137C54.7 132.2 63.8 113.8 71 104C78.2 94.2 90.7 82.2 95 78ZM273 82C276.5 81.7 274.7 81.7 275 82C275.3 82.3 273.5 83.8 275 84C276.5 84.2 282.3 82.8 284 83C285.7 83.2 285.3 84.3 285 85C284.7 85.7 283.7 87.0 282 87C280.3 87.0 280.7 84.8 275 85C269.3 85.2 251.5 88.2 248 88C244.5 87.8 249.8 85.0 254 84C258.2 83.0 269.5 82.3 273 82ZM265 183C265.7 182.5 267.5 182.3 269 183C270.5 183.7 271.8 186.2 274 187C276.2 187.8 279.3 187.0 282 188C284.7 189.0 288.0 192.2 290 193C292.0 193.8 288.8 191.2 294 193C299.2 194.8 315.5 202.3 321 204C326.5 205.7 326.0 199.0 327 203C328.0 207.0 328.0 220.2 327 228C326.0 235.8 323.3 243.5 321 250C318.7 256.5 316.2 261.5 313 267C309.8 272.5 306.5 277.7 302 283C297.5 288.3 291.8 294.2 286 299C280.2 303.8 273.8 308.5 267 312C260.2 315.5 248.7 318.2 245 320C241.3 321.8 246.0 323.3 245 323C244.0 322.7 240.2 318.5 239 318C237.8 317.5 240.5 319.7 238 320C235.5 320.3 226.8 319.3 224 320C221.2 320.7 223.3 323.3 221 324C218.7 324.7 211.8 323.7 210 324C208.2 324.3 206.7 322.3 210 326C213.3 329.7 224.0 342.7 230 346C236.0 349.3 243.3 345.5 246 346C248.7 346.5 248.8 348.5 246 349C243.2 349.5 232.3 349.3 229 349C225.7 348.7 227.7 348.8 226 347C224.3 345.2 222.5 341.5 219 338C215.5 334.5 207.0 328.7 205 326C203.0 323.3 207.5 323.5 207 322C206.5 320.5 204.5 317.7 202 317C199.5 316.3 196.0 318.2 192 318C188.0 317.8 180.8 316.0 178 316C175.2 316.0 177.5 318.5 175 318C172.5 317.5 165.7 314.3 163 313C160.3 311.7 159.8 311.2 159 310C158.2 308.8 159.2 306.7 158 306C156.8 305.3 153.3 306.8 152 306C150.7 305.2 151.5 302.0 150 301C148.5 300.0 144.0 301.0 143 300C142.0 299.0 144.3 296.0 144 295C143.7 294.0 141.7 293.8 141 294C140.3 294.2 140.2 296.2 140 296C139.8 295.8 140.7 293.3 140 293C139.3 292.7 137.0 294.2 136 294C135.0 293.8 134.0 292.8 134 292C134.0 291.2 136.2 289.7 136 289C135.8 288.3 133.7 287.8 133 288C132.3 288.2 133.0 290.8 132 290C131.0 289.2 128.3 284.2 127 283C125.7 281.8 126.0 282.0 124 283C122.0 284.0 117.2 287.2 115 289C112.8 290.8 117.0 289.3 111 294C105.0 298.7 85.0 312.3 79 317C73.0 321.7 76.3 321.2 75 322C73.7 322.8 60.0 331.2 71 322C82.0 312.8 119.0 276.2 141 267C163.0 257.8 189.7 267.7 203 267C216.3 266.3 215.7 264.8 221 263C226.3 261.2 232.3 257.7 235 256C237.7 254.3 235.7 253.5 237 253C238.3 252.5 239.7 255.2 243 253C246.3 250.8 252.8 245.7 257 240C261.2 234.3 265.7 224.3 268 219C270.3 213.7 270.3 212.5 271 208C271.7 203.5 272.0 195.5 272 192C272.0 188.5 271.5 188.2 271 187C270.5 185.8 270.0 185.2 269 185C268.0 184.8 265.7 186.3 265 186C264.3 185.7 264.3 183.5 265 183ZM243 325C240.0 321.2 244.8 322.5 249 326C253.2 329.5 253.2 342.7 268 346C282.8 349.3 326.2 345.5 338 346C349.8 346.5 350.8 348.5 339 349C327.2 349.5 283.0 353.0 267 349C251.0 345.0 246.0 328.8 243 325ZM94 346C113.0 345.5 188.8 345.7 208 346C227.2 346.3 228.0 347.5 209 348C190.0 348.5 113.2 349.3 94 349C74.8 348.7 75.0 346.5 94 346ZM342 367C345.5 364.3 343.3 367.5 343 368C342.7 368.5 340.2 369.3 340 370C339.8 370.7 341.8 371.3 342 372C342.2 372.7 341.8 373.7 341 374C340.2 374.3 337.8 373.5 337 374C336.2 374.5 337.8 375.2 336 377C334.2 378.8 328.3 383.8 326 385C323.7 386.2 319.3 387.0 322 384C324.7 381.0 338.5 369.7 342 367ZM320 384C322.5 383.0 323.5 385.3 322 387C320.5 388.7 318.5 390.7 311 394C303.5 397.3 282.5 405.2 277 407C271.5 408.8 273.0 407.3 278 405C283.0 402.7 300.0 396.5 307 393C314.0 389.5 317.5 385.0 320 384Z"></path>
  <path fill="#1c1a17" fill-rule="evenodd" d="M202 17C208.3 16.8 231.7 17.5 238 18C244.3 18.5 237.8 19.7 240 20C242.2 20.3 248.8 19.7 251 20C253.2 20.3 252.2 21.8 253 22C253.8 22.2 252.0 20.2 256 21C260.0 21.8 269.2 24.2 277 27C284.8 29.8 295.0 34.0 303 38C311.0 42.0 319.2 46.8 325 51C330.8 55.2 335.2 60.8 338 63C340.8 65.2 341.3 63.5 342 64C342.7 64.5 339.8 63.8 342 66C344.2 68.2 349.5 71.2 355 77C360.5 82.8 368.8 92.0 375 101C381.2 110.0 387.0 120.0 392 131C397.0 142.0 403.0 160.5 405 167C407.0 173.5 403.5 167.5 404 170C404.5 172.5 407.5 179.3 408 182C408.5 184.7 406.8 185.0 407 186C407.2 187.0 408.8 186.7 409 188C409.2 189.3 407.8 192.7 408 194C408.2 195.3 409.8 194.0 410 196C410.2 198.0 408.8 204.0 409 206C409.2 208.0 410.8 202.7 411 208C411.2 213.3 410.5 232.7 410 238C409.5 243.3 408.2 238.7 408 240C407.8 241.3 410.7 238.0 409 246C407.3 254.0 403.0 274.7 398 288C393.0 301.3 384.7 316.3 379 326C373.3 335.7 369.7 339.7 364 346C358.3 352.3 348.3 360.5 345 364C341.7 367.5 350.3 362.2 344 367C337.7 371.8 318.8 386.2 307 393C295.2 399.8 283.7 404.3 273 408C262.3 411.7 248.7 414.0 243 415C237.3 416.0 240.0 413.8 239 414C238.0 414.2 238.5 415.8 237 416C235.5 416.2 231.5 414.8 230 415C228.5 415.2 236.2 417.3 228 417C219.8 416.7 193.8 415.0 181 413C168.2 411.0 160.8 408.5 151 405C141.2 401.5 132.8 398.5 122 392C111.2 385.5 94.5 372.8 86 366C77.5 359.2 76.0 356.7 71 351C66.0 345.3 61.3 340.0 56 332C50.7 324.0 44.2 314.7 39 303C33.8 291.3 28.2 275.0 25 262C21.8 249.0 20.3 238.5 20 225C19.7 211.5 20.8 194.5 23 181C25.2 167.5 29.3 154.5 33 144C36.7 133.5 41.7 124.2 45 118C48.3 111.8 51.7 109.3 53 107C54.3 104.7 50.0 108.3 53 104C56.0 99.7 62.5 89.7 71 81C79.5 72.3 93.3 59.8 104 52C114.7 44.2 125.7 38.5 135 34C144.3 29.5 151.0 27.5 160 25C169.0 22.5 182.3 20.0 189 19C195.7 18.0 197.8 19.3 200 19C202.2 18.7 195.7 17.2 202 17ZM206 32C196.2 32.0 193.5 32.7 186 34C178.5 35.3 171.2 36.3 161 40C150.8 43.7 136.0 49.7 125 56C114.0 62.3 102.5 71.8 95 78C87.5 84.2 85.2 87.0 80 93C74.8 99.0 69.8 104.2 64 114C58.2 123.8 49.2 141.0 45 152C40.8 163.0 40.3 175.0 39 180C37.7 185.0 37.3 180.0 37 182C36.7 184.0 37.3 189.8 37 192C36.7 194.2 35.2 193.5 35 195C34.8 196.5 36.2 199.5 36 201C35.8 202.5 34.0 196.7 34 204C34.0 211.3 35.3 237.8 36 245C36.7 252.2 37.7 245.2 38 247C38.3 248.8 37.7 254.2 38 256C38.3 257.8 39.3 255.5 40 258C40.7 260.5 40.7 266.0 42 271C43.3 276.0 46.5 284.5 48 288C49.5 291.5 50.0 291.7 51 292C52.0 292.3 53.0 290.2 54 290C55.0 289.8 55.0 287.5 57 291C59.0 294.5 64.0 306.8 66 311C68.0 315.2 67.8 314.8 69 316C70.2 317.2 67.3 321.8 73 318C78.7 314.2 95.8 298.5 103 293C110.2 287.5 112.3 287.8 116 285C119.7 282.2 121.5 279.0 125 276C128.5 273.0 134.2 268.7 137 267C139.8 265.3 142.5 264.8 142 266C141.5 267.2 146.2 264.5 134 274C121.8 283.5 79.8 314.3 69 323C58.2 331.7 67.8 324.0 69 326C70.2 328.0 74.2 333.2 76 335C77.8 336.8 79.0 335.8 80 337C81.0 338.2 81.3 341.2 82 342C82.7 342.8 83.7 341.7 84 342C84.3 342.3 83.0 342.8 84 344C85.0 345.2 69.3 348.2 90 349C110.7 349.8 188.0 349.8 208 349C228.0 348.2 211.0 346.5 210 344C209.0 341.5 205.7 338.3 202 334C198.3 329.7 191.3 320.5 188 318C184.7 315.5 183.2 319.3 182 319C180.8 318.7 178.3 316.2 181 316C183.7 315.8 190.0 312.5 198 318C206.0 323.5 221.0 343.8 229 349C237.0 354.2 243.0 349.3 246 349C249.0 348.7 247.2 347.7 247 347C246.8 346.3 244.7 345.2 245 345C245.3 344.8 251.3 349.8 249 346C246.7 342.2 235.5 325.8 231 322C226.5 318.2 223.2 323.3 222 323C220.8 322.7 222.0 320.7 224 320C226.0 319.3 231.8 319.2 234 319C236.2 318.8 236.3 318.5 237 319C237.7 319.5 237.5 321.5 238 322C238.5 322.5 235.2 317.5 240 322C244.8 326.5 250.5 344.5 267 349C283.5 353.5 324.3 351.5 339 349C353.7 346.5 349.0 341.5 355 334C361.0 326.5 370.0 312.8 375 304C380.0 295.2 382.0 289.3 385 281C388.0 272.7 391.2 261.8 393 254C394.8 246.2 395.7 244.3 396 234C396.3 223.7 396.0 203.3 395 192C394.0 180.7 392.5 175.0 390 166C387.5 157.0 383.5 146.0 380 138C376.5 130.0 373.5 125.0 369 118C364.5 111.0 359.5 103.5 353 96C346.5 88.5 337.0 79.2 330 73C323.0 66.8 318.0 63.3 311 59C304.0 54.7 294.3 50.0 288 47C281.7 44.0 277.7 42.3 273 41C268.3 39.7 262.3 39.7 260 39C257.7 38.3 260.3 37.3 259 37C257.7 36.7 254.3 37.5 252 37C249.7 36.5 252.7 34.8 245 34C237.3 33.2 215.8 32.0 206 32ZM275 85C283.3 85.5 289.0 88.3 295 91C301.0 93.7 306.0 95.7 311 101C316.0 106.3 322.5 117.8 325 123C327.5 128.2 324.0 129.5 326 132C328.0 134.5 333.0 136.3 337 138C341.0 139.7 347.3 140.7 350 142C352.7 143.3 356.3 144.0 353 146C349.7 148.0 334.3 152.0 330 154C325.7 156.0 327.3 150.3 327 158C326.7 165.7 328.2 192.7 328 200C327.8 207.3 327.0 201.7 326 202C325.0 202.3 323.2 202.5 322 202C320.8 201.5 327.0 202.3 319 199C311.0 195.7 282.0 184.8 274 182C266.0 179.2 271.5 181.5 271 182C270.5 182.5 271.3 184.7 271 185C270.7 185.3 269.2 184.7 269 184C268.8 183.3 270.7 181.2 270 181C269.3 180.8 265.8 177.8 265 183C264.2 188.2 266.7 203.2 265 212C263.3 220.8 258.0 230.3 255 236C252.0 241.7 250.3 242.7 247 246C243.7 249.3 239.3 253.2 235 256C230.7 258.8 225.3 261.3 221 263C216.7 264.7 211.0 265.8 209 266C207.0 266.2 207.0 264.8 209 264C211.0 263.2 216.7 262.8 221 261C225.3 259.2 231.2 255.7 235 253C238.8 250.3 240.8 248.7 244 245C247.2 241.3 251.2 237.2 254 231C256.8 224.8 259.7 214.8 261 208C262.3 201.2 262.2 194.7 262 190C261.8 185.3 251.5 186.7 260 180C268.5 173.3 302.8 156.2 313 150C323.2 143.8 319.7 144.8 321 143C322.3 141.2 321.5 139.8 321 139C320.5 138.2 321.5 138.2 318 138C314.5 137.8 303.8 137.3 300 138C296.2 138.7 297.2 141.3 295 142C292.8 142.7 289.3 143.0 287 142C284.7 141.0 285.0 138.2 281 136C277.0 133.8 268.8 130.8 263 129C257.2 127.2 251.5 125.7 246 125C240.5 124.3 232.8 124.7 230 125C227.2 125.3 229.7 126.8 229 127C228.3 127.2 230.3 124.5 226 126C221.7 127.5 209.3 132.5 203 136C196.7 139.5 189.2 148.2 188 147C186.8 145.8 193.8 133.0 196 129C198.2 125.0 200.2 124.5 201 123C201.8 121.5 199.8 121.5 201 120C202.2 118.5 206.3 116.0 208 114C209.7 112.0 208.3 110.7 211 108C213.7 105.3 218.3 101.3 224 98C229.7 94.7 236.5 90.2 245 88C253.5 85.8 266.7 84.5 275 85ZM111 363C75.7 363.3 108.7 364.0 109 365C109.3 366.0 107.5 365.5 113 369C118.5 372.5 133.0 381.7 142 386C151.0 390.3 157.3 392.5 167 395C176.7 397.5 187.8 400.2 200 401C212.2 401.8 228.8 401.2 240 400C251.2 398.8 257.0 397.3 267 394C277.0 390.7 291.0 384.7 300 380C309.0 375.3 317.5 368.8 321 366C324.5 363.2 356.0 363.5 321 363C286.0 362.5 146.3 362.7 111 363Z"></path>
</svg>